<?xml version="1.0" standalone="no"?>
<!DOCTYPE svg PUBLIC "-//W3C//DTD SVG 20010904//EN"
 "http://www.w3.org/TR/2001/REC-SVG-20010904/DTD/svg10.dtd">
<svg version="1.0" xmlns="http://www.w3.org/2000/svg"
 width="1280.000000pt" height="1280.000000pt" viewBox="0 0 1280.000000 1280.000000"
 preserveAspectRatio="xMidYMid meet">

<g transform="translate(0.000000,1280.000000) scale(0.100000,-0.100000)"
fill="#000000" stroke="none">
<path d="M6365 9694 c-16 -3 -95 -9 -175 -15 -250 -17 -274 -20 -295 -29 -29
-13 -73 -21 -135 -27 -30 -3 -59 -9 -64 -14 -6 -5 -25 -9 -42 -9 -18 0 -36 -4
-39 -10 -3 -5 -19 -10 -35 -10 -16 0 -32 -4 -35 -10 -3 -5 -17 -10 -30 -10
-13 0 -27 -4 -30 -10 -3 -5 -19 -10 -35 -10 -16 0 -45 -9 -65 -20 -20 -11 -44
-20 -55 -20 -10 0 -22 -4 -25 -10 -3 -5 -14 -10 -24 -10 -9 0 -48 -16 -85 -35
-38 -19 -74 -35 -80 -35 -11 0 -296 -140 -306 -150 -3 -3 -21 -14 -40 -24 -19
-10 -44 -26 -55 -36 -11 -9 -36 -24 -55 -33 -19 -8 -51 -32 -69 -51 -19 -20
-40 -36 -46 -36 -6 0 -37 -27 -70 -60 -33 -33 -63 -60 -67 -60 -11 0 -93 -57
-108 -75 -7 -8 -18 -15 -24 -15 -19 0 -306 -306 -306 -326 0 -5 -25 -34 -56
-64 -53 -52 -114 -132 -114 -149 0 -4 -12 -18 -26 -32 -14 -13 -34 -42 -44
-65 -11 -22 -26 -47 -35 -54 -8 -7 -15 -18 -15 -25 0 -6 -9 -20 -20 -30 -11
-10 -20 -28 -20 -40 0 -11 -4 -25 -8 -31 -5 -5 -15 -25 -22 -44 -21 -57 -90
-199 -100 -205 -13 -8 -40 -66 -40 -86 0 -10 -4 -21 -10 -24 -5 -3 -10 -17
-10 -30 0 -13 -4 -27 -10 -30 -5 -3 -10 -15 -10 -26 0 -10 -5 -28 -10 -39 -5
-11 -14 -29 -20 -40 -5 -11 -10 -26 -10 -33 0 -13 -30 -82 -70 -160 -11 -22
-20 -47 -20 -58 0 -10 -4 -19 -10 -19 -5 0 -10 -11 -10 -24 0 -14 -4 -28 -10
-31 -5 -3 -10 -26 -10 -50 0 -24 -4 -47 -10 -50 -5 -3 -10 -21 -10 -40 0 -19
-4 -37 -10 -40 -5 -3 -10 -26 -10 -51 0 -24 -4 -44 -10 -44 -6 0 -10 -35 -10
-84 0 -47 -4 -88 -10 -91 -6 -4 -10 -60 -10 -135 0 -75 -4 -131 -10 -135 -13
-8 -13 -122 0 -130 6 -4 10 -63 10 -145 0 -82 4 -141 10 -145 6 -3 10 -37 10
-75 0 -38 5 -72 10 -75 6 -3 10 -26 10 -50 0 -24 5 -47 10 -50 6 -3 10 -26 10
-51 0 -24 5 -44 10 -44 6 0 10 -20 10 -44 0 -25 5 -48 10 -51 6 -3 10 -17 10
-30 0 -13 5 -27 10 -30 5 -3 10 -17 10 -31 0 -32 26 -118 51 -167 10 -22 19
-47 19 -57 0 -11 5 -22 10 -25 6 -3 10 -17 10 -30 0 -13 5 -27 10 -30 6 -3 10
-15 10 -25 0 -11 9 -35 20 -55 11 -20 20 -44 20 -55 0 -11 5 -20 10 -20 6 0
10 -9 10 -20 0 -18 34 -89 49 -100 3 -3 19 -30 34 -60 48 -94 74 -140 89 -158
8 -9 22 -33 31 -53 9 -20 23 -42 32 -49 8 -7 15 -18 15 -24 0 -7 12 -23 26
-37 14 -13 30 -33 35 -44 24 -50 79 -125 121 -167 16 -14 28 -30 28 -35 0 -12
409 -423 421 -423 5 0 28 -18 50 -40 23 -22 47 -40 53 -40 6 0 18 -9 26 -20 8
-11 18 -20 22 -20 11 0 93 -57 108 -75 7 -8 18 -15 25 -15 7 0 18 -7 25 -15 7
-9 33 -25 56 -35 24 -11 46 -24 49 -30 3 -6 25 -19 49 -30 23 -10 49 -26 56
-35 7 -8 16 -15 21 -15 14 0 124 -54 127 -62 2 -4 12 -8 23 -8 10 0 19 -4 19
-10 0 -5 9 -10 20 -10 11 0 35 -9 55 -20 20 -11 42 -20 50 -20 8 0 30 -9 50
-20 20 -11 44 -20 55 -20 10 0 22 -4 25 -10 3 -5 15 -10 25 -10 11 0 34 -8 52
-18 18 -10 62 -26 98 -36 36 -9 79 -22 96 -27 17 -5 42 -9 57 -9 14 0 29 -4
32 -10 3 -5 21 -10 40 -10 19 0 37 -4 40 -10 3 -5 24 -10 45 -10 21 0 42 -4
45 -10 3 -5 26 -10 50 -10 24 0 47 -5 50 -10 3 -5 37 -10 75 -10 38 0 72 -4
75 -10 4 -6 63 -10 145 -10 82 0 141 -4 145 -10 8 -13 132 -13 140 0 4 6 59
10 134 10 70 0 131 4 136 9 6 5 46 12 90 14 82 5 136 14 260 42 39 9 85 19
103 22 18 3 35 10 38 14 3 5 15 9 26 9 23 0 81 17 110 31 10 5 25 9 33 9 8 0
25 5 38 12 46 24 57 28 72 28 8 0 30 9 50 20 20 11 41 20 48 20 7 0 39 13 72
30 33 16 66 30 73 30 33 0 200 92 237 129 21 23 44 41 50 41 6 0 24 13 40 30
16 16 32 30 36 30 11 0 94 57 109 75 7 8 18 15 25 15 6 0 20 9 30 20 10 11 23
20 30 20 7 0 20 9 30 20 10 11 24 20 32 20 7 0 13 3 13 8 0 4 18 18 40 32 22
14 40 28 40 32 0 5 4 8 10 8 53 0 352 288 478 460 22 30 50 67 61 82 12 14 21
31 21 37 0 6 4 11 8 11 5 0 15 12 23 28 8 15 26 41 41 57 16 17 28 34 28 39 0
5 6 17 14 25 8 9 26 40 41 69 15 29 31 55 36 58 5 2 16 22 25 42 10 20 24 45
32 54 19 22 82 149 82 164 0 7 15 41 34 76 18 34 39 81 46 103 7 22 16 44 21
50 5 5 9 19 9 31 0 13 5 26 10 29 6 3 10 17 10 30 0 13 5 27 10 30 6 3 10 16
10 29 0 12 5 27 11 33 7 7 11 37 11 67 0 31 4 58 9 62 5 3 9 16 9 29 0 13 5
27 10 30 6 3 10 21 10 40 0 19 5 37 10 40 6 3 10 21 10 40 0 19 5 37 10 40 6
3 10 23 10 44 0 20 4 41 9 47 5 5 12 43 15 84 2 41 10 145 17 230 16 194 16
250 0 425 -7 77 -15 172 -18 210 -2 39 -9 74 -14 79 -5 6 -9 34 -9 62 0 29 -4
56 -10 59 -5 3 -10 26 -10 50 0 24 -4 47 -10 50 -5 3 -10 24 -10 45 0 21 -4
42 -10 45 -5 3 -10 21 -10 40 0 19 -4 37 -10 40 -5 3 -10 22 -10 41 0 19 -4
34 -10 34 -5 0 -10 9 -10 20 0 11 -4 28 -9 38 -5 9 -14 31 -21 47 -7 17 -16
38 -21 47 -5 10 -9 26 -9 36 0 10 -4 22 -9 28 -5 5 -14 27 -21 49 -15 49 -101
229 -112 233 -4 2 -8 12 -8 23 0 10 -4 19 -10 19 -5 0 -10 9 -10 19 0 11 -3
21 -7 23 -5 2 -18 21 -30 43 -12 22 -39 71 -60 109 -56 101 -58 105 -87 135
-14 15 -26 32 -26 37 0 6 -9 19 -20 29 -11 10 -20 23 -20 30 0 6 -13 24 -30
40 -16 16 -30 34 -30 40 0 6 -16 26 -35 45 -19 19 -35 38 -35 42 0 5 -24 32
-52 61 -29 30 -78 80 -108 113 -72 76 -239 234 -248 234 -4 0 -24 16 -44 35
-20 19 -41 35 -45 35 -5 0 -22 14 -38 30 -16 17 -34 30 -40 30 -7 0 -20 9 -30
20 -10 11 -23 20 -30 20 -6 0 -24 14 -40 30 -16 17 -33 30 -39 30 -5 0 -18 7
-28 17 -21 19 -36 27 -138 79 -41 21 -76 42 -78 46 -2 4 -12 8 -22 8 -10 0
-20 4 -22 8 -4 10 -217 115 -278 137 -25 9 -57 19 -72 22 -16 3 -28 9 -28 14
0 5 -9 9 -20 9 -11 0 -20 5 -20 10 0 6 -11 10 -24 10 -14 0 -28 5 -31 10 -3 6
-17 10 -30 10 -13 0 -27 5 -30 10 -3 6 -17 10 -30 10 -13 0 -27 5 -30 10 -3 6
-21 10 -40 10 -19 0 -37 5 -40 10 -3 6 -17 10 -30 10 -13 0 -27 5 -30 10 -3 6
-24 10 -45 10 -21 0 -42 5 -45 10 -3 6 -34 10 -69 10 -34 0 -66 4 -72 9 -10
10 -52 15 -274 30 -222 15 -322 19 -355 15z m1190 -1294 c3 -5 26 -10 51 -10
24 0 44 -4 44 -10 0 -5 15 -10 34 -10 19 0 38 -4 41 -10 3 -5 14 -10 23 -10
25 0 237 -107 257 -130 10 -11 22 -20 27 -20 11 0 185 -175 221 -222 15 -20
27 -41 27 -46 0 -5 7 -15 15 -22 16 -14 65 -108 65 -127 0 -7 9 -28 20 -48 11
-20 20 -49 20 -65 0 -16 5 -32 10 -35 6 -3 10 -24 10 -45 0 -21 5 -42 10 -45
7 -4 10 -392 10 -1130 0 -738 -3 -1126 -10 -1130 -5 -3 -10 -26 -10 -50 0 -24
-4 -47 -10 -50 -5 -3 -10 -22 -10 -41 0 -19 -4 -34 -10 -34 -5 0 -10 -8 -10
-17 0 -23 -87 -198 -106 -213 -8 -7 -14 -18 -14 -24 0 -7 -20 -32 -45 -56 -25
-24 -45 -48 -45 -52 0 -11 -87 -98 -98 -98 -4 0 -17 -8 -28 -17 -27 -24 -48
-37 -119 -74 -33 -17 -67 -37 -75 -43 -8 -7 -35 -18 -60 -25 -25 -7 -53 -17
-62 -22 -10 -5 -27 -9 -37 -9 -11 0 -23 -4 -26 -10 -3 -5 -24 -10 -45 -10 -21
0 -42 -4 -45 -10 -9 -14 -2245 -14 -2245 0 0 6 -20 10 -44 10 -25 0 -48 5 -51
10 -3 6 -19 10 -35 10 -16 0 -45 9 -65 20 -20 11 -44 20 -53 20 -10 0 -44 16
-76 35 -32 19 -62 35 -67 35 -5 0 -9 5 -9 10 0 6 -6 10 -12 10 -7 0 -27 14
-45 30 -18 17 -35 30 -40 30 -10 0 -173 162 -173 173 0 5 -14 28 -30 52 -16
24 -30 48 -30 54 0 6 -3 11 -8 11 -4 0 -13 15 -21 33 -8 17 -25 54 -38 81 -12
28 -23 58 -23 67 0 10 -4 21 -10 24 -5 3 -10 21 -10 40 0 19 -4 37 -10 40 -5
3 -10 33 -10 65 0 32 -4 62 -10 65 -7 4 -10 372 -10 1071 0 703 3 1064 10
1064 6 0 10 24 10 54 0 30 5 58 10 61 6 3 10 15 10 26 0 10 4 27 9 37 5 9 14
35 21 57 17 56 108 241 125 255 8 7 15 17 15 24 0 13 161 176 174 176 6 0 22
12 37 26 31 30 44 37 149 89 41 20 83 41 92 46 10 5 25 9 33 9 8 0 15 5 15 10
0 6 15 10 34 10 19 0 38 5 41 10 3 6 30 10 60 10 30 0 57 5 60 10 4 7 382 10
1100 10 718 0 1096 -3 1100 -10z"/>
<path d="M5425 7940 c-3 -5 -28 -10 -55 -10 -27 0 -52 -4 -55 -10 -3 -5 -14
-10 -24 -10 -26 0 -115 -47 -141 -75 -13 -14 -28 -25 -35 -25 -6 0 -33 -24
-61 -52 -50 -53 -84 -112 -84 -148 0 -10 -4 -22 -10 -25 -5 -3 -10 -17 -10
-30 0 -13 -4 -27 -10 -30 -7 -4 -10 -387 -10 -1115 0 -728 3 -1111 10 -1115 6
-3 10 -17 10 -30 0 -13 5 -27 10 -30 6 -3 10 -13 10 -21 0 -24 38 -101 63
-127 12 -13 27 -32 33 -42 6 -10 19 -23 29 -29 10 -6 28 -19 39 -28 11 -10 26
-18 33 -18 7 0 13 -3 13 -8 0 -15 129 -62 171 -62 15 0 30 -4 33 -9 9 -14
1953 -25 2071 -11 142 16 246 53 294 104 14 14 30 26 36 26 14 0 65 52 65 66
0 6 9 19 20 29 23 21 90 153 90 178 0 9 5 17 10 17 7 0 10 375 10 1105 0 1086
0 1105 -20 1140 -11 20 -20 41 -20 48 0 32 -56 119 -115 179 -63 64 -185 138
-227 138 -9 0 -20 5 -23 10 -3 6 -26 10 -50 10 -24 0 -47 5 -50 10 -4 7 -357
10 -1025 10 -668 0 -1021 -3 -1025 -10z m2177 -232 c38 -22 118 -100 134 -132
26 -51 21 -167 -10 -230 -30 -62 -58 -90 -122 -122 -49 -25 -120 -32 -152 -15
-9 5 -33 16 -52 25 -40 17 -133 107 -155 150 -17 32 -21 171 -5 181 6 3 10 16
10 29 0 27 43 70 102 101 35 19 60 23 136 24 57 1 101 -4 114 -11z m-1087
-268 c3 -5 35 -10 70 -10 35 0 67 -4 70 -10 3 -5 22 -10 41 -10 19 0 34 -4 34
-10 0 -5 11 -10 24 -10 14 0 28 -4 31 -10 3 -5 14 -10 23 -10 9 0 57 -21 107
-46 119 -61 132 -68 153 -87 10 -10 22 -17 27 -17 12 0 135 -123 135 -134 0
-6 12 -22 26 -37 14 -15 37 -47 49 -71 64 -117 115 -226 115 -241 0 -9 5 -17
10 -17 6 0 10 -13 10 -30 0 -16 5 -30 10 -30 6 0 10 -20 10 -44 0 -25 5 -48
10 -51 6 -4 10 -65 10 -150 0 -85 -4 -146 -10 -150 -5 -3 -10 -26 -10 -50 0
-24 -4 -47 -10 -50 -5 -3 -10 -19 -10 -35 0 -16 -9 -45 -20 -65 -11 -20 -20
-44 -20 -54 0 -11 -3 -21 -7 -23 -5 -1 -19 -23 -32 -48 -13 -25 -32 -62 -43
-82 -11 -20 -26 -42 -34 -49 -8 -6 -14 -17 -14 -23 0 -13 -182 -196 -195 -196
-5 0 -17 -7 -27 -17 -55 -49 -288 -153 -346 -153 -11 0 -24 -4 -27 -10 -3 -5
-37 -10 -75 -10 -38 0 -72 -4 -75 -10 -8 -13 -168 -13 -180 -1 -6 5 -37 12
-70 15 -84 7 -134 17 -141 27 -3 5 -13 9 -23 9 -9 0 -39 11 -67 24 -27 14 -60
30 -74 36 -41 18 -69 35 -100 64 -16 14 -34 26 -38 26 -8 0 -203 197 -234 238
-10 12 -18 26 -18 31 0 5 -7 14 -15 21 -16 13 -75 133 -75 151 0 6 -9 29 -20
51 -11 23 -20 54 -20 69 0 15 -4 31 -10 34 -5 3 -10 46 -10 95 0 49 -4 92 -10
95 -5 3 -10 17 -10 30 0 13 5 27 10 30 6 3 10 46 10 95 0 49 5 92 10 95 6 3
10 17 10 31 0 30 51 188 62 192 4 2 8 12 8 23 0 10 5 19 10 19 6 0 10 6 10 13
0 7 9 23 20 35 11 12 20 25 20 30 0 5 9 17 20 27 11 10 20 23 20 29 0 13 201
216 214 216 5 0 17 7 26 15 25 23 211 115 231 115 10 0 21 5 24 10 3 6 17 10
30 10 13 0 27 5 30 10 3 6 21 10 40 10 19 0 37 5 40 10 3 6 33 10 65 10 32 0
62 5 65 10 3 6 33 10 65 10 32 0 62 -4 65 -10z"/>
<path d="M6425 6980 c-3 -5 -35 -10 -70 -10 -35 0 -67 -4 -70 -10 -3 -5 -16
-10 -29 -10 -68 0 -260 -163 -312 -265 -69 -137 -89 -299 -53 -425 19 -64 73
-164 111 -207 21 -24 38 -47 38 -53 0 -5 6 -10 13 -10 7 0 29 -16 47 -35 36
-37 97 -69 186 -98 68 -22 260 -23 324 -1 64 22 146 62 160 79 7 8 16 15 21
15 30 0 138 132 171 210 34 79 38 92 38 120 0 16 5 32 10 35 6 3 10 48 10 101
0 56 -4 94 -10 94 -5 0 -10 15 -10 34 0 19 -4 38 -10 41 -5 3 -10 14 -10 24 0
18 -31 82 -64 136 -27 42 -108 125 -122 125 -6 0 -17 7 -24 15 -15 18 -109 65
-131 65 -10 0 -21 5 -24 10 -3 6 -28 10 -55 10 -27 0 -52 5 -55 10 -3 6 -21
10 -40 10 -19 0 -37 -4 -40 -10z"/>
</g>
</svg>
